# xmcd
#
# Track frame offsets:
#	175
#	17737
#	36350
#	58500
#	80425
#	104737
#
# Disc length: 1732 seconds
#
# Revision: 1
# Processed by: cddbd v1.5PL3 Copyright (c) Steve Scherf et al.
# Submitted via: audiograbber 1.83.01
#
DISCID=4906c206
DTITLE=Манго манго. - Щорс. (Single)
DYEAR=1900
DGENRE=
TTITLE0=Щорс. (Радиоверсия)
TTITLE1=Мне страшно.
TTITLE2=Аквалангисты. (Версия 1996)
TTITLE3=Щорс. (Клаб микс)
TTITLE4=Щорс. (Дэнс - дэнс)
TTITLE5=Щорс. (Живой концерт)
EXTD=
EXTT0=
EXTT1=
EXTT2=
EXTT3=
EXTT4=
EXTT5=
PLAYORDER=
